<?xml version="1.0" encoding="UTF-8"?> <svg xmlns="http://www.w3.org/2000/svg" id="Layer_2" data-name="Layer 2" viewBox="0 0 31.85 31.58"><defs><style> .cls-1 { fill: #8098a3; } .cls-1, .cls-2 { stroke-width: 0px; } .cls-2 { fill: #007c37; } </style></defs><g id="Layer_1-2" data-name="Layer 1"><g><path class="cls-1" d="M29.73,6.61l-4.5-4.5c-1.36-1.36-3.18-2.12-5.11-2.12h-6.14c-.26,0-.47.21-.47.47s.21.47.47.47h5.14c1.83,0,3.33,1.49,3.33,3.33v3.09c0,1.12.91,2.04,2.04,2.04h3.09c1.83,0,3.33,1.49,3.33,3.33v15.5c0,.61-.49,1.1-1.1,1.1H12.19c.84-.92,1.42-2.02,1.68-3.21h8.88c.26,0,.47-.21.47-.47s-.21-.47-.47-.47h-8.74c.02-.2.03-.4.03-.6,0-.47-.05-.93-.13-1.38h2.81c.26,0,.47-.21.47-.47s-.21-.47-.47-.47h-3.07c-.25-.71-.61-1.38-1.08-1.98h14.81c.26,0,.47-.21.47-.47s-.21-.47-.47-.47h-15.68c-1.12-1-2.48-1.59-3.89-1.75V2.04c0-.61.49-1.1,1.1-1.1h3.2c.26,0,.47-.21.47-.47S12.38,0,12.13,0h-3.2C7.8,0,6.89.91,6.89,2.04v15.51c-1.75.03-3.5.72-4.83,2.05-1.33,1.33-2.06,3.09-2.06,4.96s.73,3.64,2.06,4.96c1.37,1.37,3.17,2.05,4.96,2.05,1.45,0,2.9-.45,4.13-1.34h18.67c1.12,0,2.04-.91,2.04-2.04V11.72c0-1.93-.75-3.74-2.12-5.11h0ZM2.72,28.87c-1.15-1.15-1.78-2.68-1.78-4.3s.63-3.15,1.78-4.3c1.19-1.19,2.75-1.78,4.3-1.78s3.12.59,4.3,1.78c1.15,1.15,1.78,2.68,1.78,4.3s-.63,3.15-1.78,4.3c-2.37,2.37-6.24,2.37-8.61,0h0ZM27.59,8.45h-3.09c-.61,0-1.1-.49-1.1-1.1v-3.09c0-1.17-.47-2.22-1.23-2.99.9.31,1.72.82,2.41,1.51l4.5,4.5c.69.69,1.2,1.51,1.51,2.41-.77-.76-1.83-1.23-2.99-1.23Z"></path><path class="cls-1" d="M27.39,13.51h-12.58c-.26,0-.47.21-.47.47s.21.47.47.47h12.58c.26,0,.47-.21.47-.47s-.21-.47-.47-.47Z"></path><path class="cls-1" d="M27.39,16.43h-15.83c-.26,0-.47.21-.47.47s.21.47.47.47h15.83c.26,0,.47-.21.47-.47s-.21-.47-.47-.47Z"></path><path class="cls-1" d="M27.39,22.25h-8.81c-.26,0-.47.21-.47.47s.21.47.47.47h8.81c.26,0,.47-.21.47-.47s-.21-.47-.47-.47Z"></path><g><path class="cls-2" d="M8.82,20.32c-.24-.1-.51.01-.61.25l-3.13,7.47c-.1.24.01.51.25.61.06.02.12.04.18.04.18,0,.36-.11.43-.29l3.13-7.47c.1-.24-.01-.51-.25-.61h0Z"></path><path class="cls-2" d="M6.76,22.01c0-1.14-.83-2.08-1.85-2.08s-1.85.93-1.85,2.08.83,2.08,1.85,2.08,1.85-.93,1.85-2.08ZM4.9,23.16c-.51,0-.92-.51-.92-1.14s.41-1.14.92-1.14.92.51.92,1.14-.41,1.14-.92,1.14Z"></path><path class="cls-2" d="M9.14,25.04c-1.02,0-1.85.93-1.85,2.08s.83,2.08,1.85,2.08,1.85-.93,1.85-2.08-.83-2.08-1.85-2.08ZM9.14,28.26c-.51,0-.92-.51-.92-1.14s.41-1.14.92-1.14.92.51.92,1.14-.41,1.14-.92,1.14Z"></path><path class="cls-2" d="M16.35,4.41c-.09-.21-.29-.35-.53-.35h0c-.23,0-.44.14-.53.35,0,0,0,0,0,.01l-1.71,4.48c-.09.24.03.51.27.6.05.02.11.03.17.03.19,0,.37-.11.44-.3l.31-.82h2.1l.31.81c.09.24.36.36.6.27.24-.09.36-.36.27-.6l-1.69-4.48s0,0,0-.01h0ZM15.12,7.49l.7-1.83.69,1.83h-1.39Z"></path><path class="cls-2" d="M10.57,4.37c-.08-.24-.35-.37-.59-.29-.24.08-.37.35-.29.59l1.55,4.48c.08.23.3.38.54.38h0c.24,0,.46-.16.54-.39l1.48-4.47c.08-.24-.05-.51-.3-.59-.24-.08-.51.05-.59.3l-1.15,3.45-1.2-3.46Z"></path><path class="cls-2" d="M20.9,4.06h-2.51c-.26,0-.47.21-.47.47s.21.47.47.47h.78v4.08c0,.26.21.47.47.47s.47-.21.47-.47v-4.08h.79c.26,0,.47-.21.47-.47s-.21-.47-.47-.47Z"></path></g></g></g></svg> 